<svg xmlns="http://www.w3.org/2000/svg" viewBox="100 470 1840 1180" preserveAspectRatio="xMidYMid meet">
<path d="M 1320.6 1172.37 C 1347.08 1169.36 1375.28 1177.24 1396.96 1192.9 C 1474.32 1248.78 1485.19 1377.84 1429.8 1452.24 C 1408.32 1481.1 1381.07 1500.71 1344.97 1505.64 C 1323.85 1508.17 1304.77 1505.04 1285.47 1496.2 C 1160.18 1438.88 1174.75 1188.96 1320.6 1172.37 z" fill="rgb(60,60,60)" transform="translate(0,0)"></path>
<path d="M 1326.57 1176.29 C 1434.27 1162.48 1447.92 1484.63 1337.68 1501.76 C 1322.52 1502.24 1313.8 1501.19 1300.7 1492.17 C 1228.09 1442.15 1229.91 1190.75 1326.57 1176.29 z" fill="rgb(245,236,215)" transform="translate(0,0)"></path>
<path d="M 1160.01 804.494 C 1189.04 804.387 1234.72 802.749 1262.02 806.18 C 1298.8 810.802 1342.81 832.956 1364.63 864.063 C 1393.33 904.974 1400.54 955.828 1392.87 1004.57 C 1385.77 1049.65 1367.52 1084.59 1330.73 1111.48 C 1288.33 1139.62 1253.65 1138.24 1205.86 1138.19 L 1138.61 1138.09 C 1163.24 1111.97 1158.31 1069.85 1158.36 1036.56 L 1158.45 945.685 L 1158.36 884.457 C 1158.36 853.692 1161.68 829.812 1140.74 804.97 L 1160.01 804.494 z" fill="rgb(60,60,60)" transform="translate(0,0)"></path>
<path d="M 1231.31 810.445 C 1319.91 811.965 1346.37 897.524 1345.08 973.523 C 1344.24 1023.13 1329.23 1073.81 1292.65 1108.97 C 1278.27 1121.44 1260.55 1129.42 1241.68 1131.93 C 1207.87 1136.32 1205.4 1120.04 1202.27 1089.59 C 1200.67 1074 1201.9 1055.84 1201.94 1039.9 L 1202.06 957.888 L 1202.1 890.942 C 1202.09 870.127 1200.98 849.464 1205.74 829.079 C 1209.82 811.594 1215.38 811.216 1231.31 810.445 z" fill="rgb(245,236,215)" transform="translate(0,0)"></path>
<path d="M 481.354 1172.39 C 510.762 1169.14 541.317 1180.24 563.934 1198.65 C 627.214 1250.16 637.21 1350.41 606.108 1421.64 C 586.431 1466.71 551.922 1500.48 502.447 1505.61 C 472.886 1508.73 441.527 1498.86 418.768 1480 C 348.216 1421.52 342.21 1290.3 398.166 1220.45 C 419.367 1193.98 447.726 1175.75 481.354 1172.39 z" fill="rgb(60,60,60)" transform="translate(0,0)"></path>
<path d="M 486.794 1176.34 C 529.824 1172.05 552.261 1218.99 563.157 1253.01 C 584.06 1318.28 581.44 1486.44 497 1501.93 C 486.84 1502.31 479.301 1502.17 469.872 1497.47 C 383.628 1454.46 390.035 1190.19 486.794 1176.34 z" fill="rgb(245,236,215)" transform="translate(0,0)"></path>
<path d="M 427.926 804.486 L 495.16 804.526 C 535.929 804.54 575.424 802.188 612.055 825.561 C 625.486 834.692 637.156 849.445 639.334 865.886 C 646.631 920.97 611.587 936.535 566.492 944.317 C 577.372 946.818 587.192 949.442 597.62 953.527 C 651.064 974.462 675.204 1023.62 653.289 1077.82 C 622.564 1138.37 538.768 1139.9 480.096 1137.84 C 461.599 1137.2 441.515 1139.01 423.245 1136.96 C 445.647 1117.74 442.021 1083.68 442.039 1056.92 L 442.043 986.081 L 442.001 898.119 C 441.978 871.252 445.187 833.842 429.35 809.996 C 428.045 808.032 427.371 807.629 426.235 805.232 L 427.926 804.486 z" fill="rgb(60,60,60)" transform="translate(0,0)"></path>
<path d="M 536.692 948.368 C 609.741 943.948 635.428 1065.24 588.016 1108.19 C 577.374 1117.83 569.352 1122.03 556.12 1127.28 C 493.366 1146.49 482.052 1114.64 483.928 1058.77 C 485.307 1017.71 481.105 954.271 536.692 948.368 z" fill="rgb(245,236,215)" transform="translate(0,0)"></path>
<path d="M 483.873 980.783 L 483.933 903.665 C 483.903 878.219 479.86 838.75 499.747 819.822 C 523.725 799.228 560.534 812.909 579.199 831.777 C 602.155 854.985 600.837 907.996 575.879 926.849 C 534.42 958.168 508.509 924.694 485.251 989.734 C 484.964 991.084 484.992 991.988 483.708 992.544 C 482.102 991.366 483.582 982.617 483.873 980.783 z" fill="rgb(245,236,215)" transform="translate(0,0)"></path>
<path d="M 483.873 980.783 C 484.197 984.706 483.698 986.449 485.251 989.734 C 484.964 991.084 484.992 991.988 483.708 992.544 C 482.102 991.366 483.582 982.617 483.873 980.783 z" fill="rgb(187,173,174)" transform="translate(0,0)"></path>
<path d="M 111.421 1173.75 C 127.921 1172.89 146.703 1173.92 163.483 1173.74 C 217.574 1173.16 308.005 1167.61 327.189 1233.24 C 331.543 1248.14 327.762 1269.96 319.113 1282.86 C 304.341 1306.14 277.564 1309 253.169 1314.77 C 263.044 1316.76 272.752 1319.5 282.206 1322.97 C 337.447 1342.68 363.501 1385.3 343.123 1442.68 C 339.002 1451.82 333.274 1460.15 326.21 1467.26 C 288.865 1505.04 231.297 1503.59 183.023 1503.74 L 110.352 1503.97 C 125.237 1489.5 128.096 1472.13 128.252 1452.29 C 128.668 1399.62 128.311 1347.11 128.176 1294.41 C 128.106 1266.99 129.568 1236.09 127.355 1209.07 C 126.388 1197.25 119.736 1182.54 111.421 1173.75 z" fill="rgb(60,60,60)" transform="translate(0,0)"></path>
<path d="M 227.889 1317.41 C 261.323 1317.92 283.687 1342.79 293.909 1372.95 C 302.687 1398.84 302.296 1433.58 289.694 1458.31 C 278.907 1479.49 264.051 1488.45 242.02 1495.51 C 239.192 1496.14 236.351 1496.71 233.501 1497.22 C 175.27 1507.52 170.978 1468.65 171.639 1423.3 C 172.084 1392.74 171.173 1359.54 190.886 1333.66 C 200.262 1321.36 213.639 1318.83 227.889 1317.41 z" fill="rgb(245,236,215)" transform="translate(0,0)"></path>
<path d="M 171.975 1355.38 L 171.522 1275.77 C 171.415 1249.15 166.77 1202.14 192.048 1185.41 C 215.395 1171.14 249.482 1183.48 267.063 1200.21 C 291.306 1223.28 289.146 1276.67 264.507 1297.13 C 229.854 1325.91 196.585 1296.31 175.226 1354.28 C 174.532 1356.47 173.866 1358.12 173.018 1360.25 L 172.156 1359.84 L 171.975 1355.38 z" fill="rgb(245,236,215)" transform="translate(0,0)"></path>
<path d="M 985.524 804.474 C 1003.37 804.184 1021.22 804.333 1039.05 804.92 C 1020.58 831.27 1039.75 869.24 1047.35 898.111 L 1079.04 1015.93 C 1086.28 1042.77 1092.81 1069.8 1102.77 1095.82 C 1109.67 1113.83 1118.31 1124.8 1131.97 1138.06 L 1048.02 1137.94 C 1051.41 1134.44 1054.35 1131.36 1056.73 1127.06 C 1059.64 1121.88 1061.01 1115.98 1060.68 1110.06 C 1060.04 1099.78 1053.62 1079.89 1050.72 1069.16 L 1033.26 1003.67 C 1022.82 1003.87 1012.43 1005.09 1002.24 1007.32 C 984.165 1011.1 964.316 1021.33 951.63 1034.78 C 924.438 1063.6 916.794 1109.19 947.596 1138.15 L 863.786 1137.78 C 888.428 1121.47 893.499 1091.51 902.596 1065.39 C 914.176 1032.14 924.223 998.317 935.091 964.833 C 944.861 935.051 954.471 905.217 963.92 875.332 C 972.297 849.369 985.078 828.957 962.686 804.874 L 985.524 804.474 z" fill="rgb(60,60,60)" transform="translate(0,0)"></path>
<path d="M 981.208 841.609 C 988.502 843.134 990.839 850.26 992.601 856.969 C 1005.08 904.5 1020.07 952.517 1032.1 1000.04 C 979.138 999.414 946.509 1024.27 917.357 1066.39 C 909.457 1078.19 904.093 1090.69 896.477 1102.76 C 916.199 1035.7 940.017 969.379 960.611 902.536 C 966.753 882.601 973.078 860.79 981.208 841.609 z" fill="rgb(245,236,215)" transform="translate(0,0)"></path>
<path d="M 1409.94 804.469 C 1418.29 804.353 1426.91 804.411 1435.26 804.538 C 1487.66 805.33 1540.58 803.283 1592.92 805.003 C 1595.6 834.957 1603.55 865.425 1613.94 893.332 C 1614.71 895.394 1613.68 896.234 1612.59 897.566 C 1609.04 897.217 1604.49 885.233 1602.57 881.452 C 1583.54 843.939 1545.38 808.741 1500.87 810.218 C 1472.96 811.144 1456.38 839.3 1456.79 865.374 C 1457.37 901.862 1455.24 940 1457.18 976.503 C 1460.87 963.429 1464.01 951.349 1474.16 941.441 C 1479.24 936.464 1485.58 932.965 1492.49 931.319 C 1503.76 928.549 1547.17 929.88 1560.9 929.987 C 1560.52 953.987 1560.42 977.99 1560.62 1001.99 C 1555.82 995.125 1552.03 976.827 1545.8 966.565 C 1538.56 954.202 1528.13 938.519 1512.94 935.218 C 1482.32 928.563 1468.49 949.718 1462.36 974.516 C 1454.5 1011.62 1455.71 1055.06 1457.81 1092.79 C 1459.78 1128.04 1484.66 1137.21 1515.33 1128.98 C 1566.15 1115.35 1595.68 1081.41 1618.89 1036.12 C 1619.61 1035.83 1620.33 1035.55 1621.05 1035.26 L 1621.92 1036.12 C 1621.69 1038.32 1614.09 1062.05 1612.64 1067.12 C 1605.32 1092.73 1602.15 1111.55 1599.98 1138.06 L 1394.95 1137.52 C 1418.96 1111.76 1414 1077.09 1413.92 1043.99 L 1413.7 957.095 L 1413.93 887.564 C 1413.93 857.378 1416.39 830.507 1398.06 804.897 L 1409.94 804.469 z" fill="rgb(60,60,60)" transform="translate(0,0)"></path>
<path d="M 1712.99 1173.8 C 1775.59 1172.16 1844.87 1173.73 1908.12 1173.96 C 1910.74 1197.77 1913.06 1217.81 1919.92 1241.01 C 1921.49 1246.32 1928.1 1264.15 1927.7 1266.47 L 1926.07 1267.2 C 1924.42 1266.64 1922.96 1266.24 1922.24 1264.41 C 1914.43 1244.53 1904.68 1229.32 1889.81 1213.42 C 1867.25 1189.3 1817.4 1162.31 1789.02 1192.12 C 1770.08 1212.02 1773.08 1246.92 1772.98 1272.3 C 1772.82 1289.76 1772.87 1307.22 1773.15 1324.68 C 1773 1332.79 1772.58 1341.95 1773.4 1349.93 L 1774.22 1350.66 C 1774.77 1348.96 1775.21 1347.8 1775.54 1346.05 C 1778.9 1334.6 1782.49 1324.72 1791.29 1316.02 C 1796.36 1310.92 1802.72 1307.29 1809.69 1305.52 C 1820.3 1302.8 1864.44 1304 1877.74 1303.91 C 1877.8 1312.71 1878.79 1365.43 1876.81 1368.84 L 1875.28 1368.74 C 1871.47 1363.39 1867.61 1347.16 1862.86 1339.06 C 1831.35 1285.34 1782.89 1304.83 1776.54 1361.28 C 1773.38 1389.36 1770.69 1433.96 1775.21 1461.51 C 1788.21 1540.89 1893.34 1477.78 1913.11 1435.99 C 1914.91 1432.25 1929.26 1407.27 1929.56 1407.02 L 1932.32 1407.37 C 1932.73 1411 1929.8 1418.89 1928.34 1422.43 C 1917.5 1448.66 1913.81 1476.03 1911.09 1503.98 L 1711.74 1503.72 C 1734.94 1477.14 1730.33 1447.24 1730.15 1414.15 L 1730.08 1342.21 L 1730.06 1261.81 C 1730.07 1230.23 1733.81 1199.87 1712.99 1173.8 z" fill="rgb(60,60,60)" transform="translate(0,0)"></path>
<path d="M 820.3 1173.17 L 864.215 1173.72 C 867.669 1173.63 868.062 1173.23 871.131 1174.44 C 870.777 1178.47 864.109 1186.61 861.902 1193.76 C 856.483 1211.34 852.861 1228.68 851.521 1247.04 C 848.646 1286.47 850.646 1326.56 850.075 1366.08 C 849.697 1383.77 851.125 1401.86 848.451 1419.37 C 838.596 1483.91 785.505 1515.01 723.055 1504.15 C 682.606 1498.16 653.111 1465.56 647.685 1425.53 C 644.981 1405.58 646.294 1378.36 646.302 1357.6 L 646.48 1261.18 C 646.57 1237.95 648.776 1207.24 638.62 1186.22 C 636.725 1182.29 633.134 1178.23 630.468 1174.43 L 631.648 1173.44 L 706.232 1173.81 L 705.709 1174.43 L 704.848 1175.47 C 689.62 1193.65 689.235 1212.35 689.246 1235.11 C 689.258 1258.53 689.664 1282.01 689.556 1305.43 L 689.272 1369.17 C 689.234 1389.02 687.639 1420.51 696.954 1438.21 C 717.021 1476.19 777.381 1485.24 813.259 1467.91 C 844.215 1452.48 846.004 1410.31 845.146 1380.4 C 843.147 1310.76 854.054 1237.22 820.3 1173.17 z" fill="rgb(60,60,60)" transform="translate(0,0)"></path>
<path d="M 1001.66 484.414 C 1003.49 484.098 1007.73 483.974 1009.69 483.874 C 1086.46 479.37 1161.8 505.937 1218.76 557.592 C 1258.8 593.568 1287.64 640.303 1301.85 692.222 C 1305.53 705.396 1308.77 718.046 1309.44 731.773 C 1304.35 722.464 1300.39 709.82 1295.93 699.797 C 1250.75 598.297 1163.35 535.617 1052.76 523.74 C 1022.6 520.151 980.096 525.162 951.236 532.693 C 874.559 552.701 810.583 603.877 773.713 673.957 C 768.591 683.692 763.966 692.746 759.646 702.995 C 756.391 710.718 753.462 722.029 749.454 728.879 L 748.605 728.747 C 747.633 722.111 751.4 710.409 752.895 703.531 C 779.395 581.591 877.848 496.108 1001.66 484.414 z" fill="rgb(170,64,167)" transform="translate(0,0)"></path>
<path d="M 1465.55 1173.47 C 1483.54 1172.11 1523.92 1173.72 1543.3 1174.08 C 1543.09 1174.28 1542.89 1174.48 1542.68 1174.69 L 1541.69 1175.72 C 1523.78 1194.17 1526.81 1233.69 1526.85 1257.73 L 1526.96 1325.4 C 1526.98 1345.2 1525.64 1393.18 1527.56 1411.15 C 1528.53 1421.02 1531.36 1430.61 1535.92 1439.43 C 1553.55 1473 1601.15 1482 1635.26 1474.21 C 1691.71 1461.33 1681.45 1392.62 1681.95 1349.18 C 1682.65 1287.37 1685.54 1230.35 1654.33 1173.88 L 1695.49 1173.82 L 1707.67 1173.87 C 1670.27 1227.04 1695.29 1365.1 1683.95 1428.46 C 1681.13 1444.27 1673.66 1460.13 1663.09 1472.4 C 1645.91 1492.29 1621.43 1504.41 1595.19 1506.01 C 1542.43 1509.58 1495.54 1484.58 1486.52 1428.74 C 1483.49 1409.98 1484.8 1388.2 1484.84 1368.97 L 1484.97 1276.69 C 1484.97 1258.7 1485.3 1240.04 1484.34 1221.96 C 1483.58 1207.61 1479.82 1187.09 1468.56 1176.87 C 1466.83 1175.29 1466.93 1176.03 1465.55 1173.47 z" fill="rgb(60,60,60)" transform="translate(0,0)"></path>
<path d="M 930.68 1173.49 C 986.403 1172.53 1043.98 1173.62 1099.86 1173.78 C 1101.27 1193.78 1102.87 1213.77 1104.67 1233.75 C 1105.73 1245.59 1107.5 1260.6 1107.4 1272.24 L 1105.74 1273.01 C 1100.97 1269.93 1098.78 1250.1 1095.62 1242.13 C 1085.56 1216.74 1070.15 1193.07 1044.43 1181.48 C 1040.63 1179.77 1032.99 1177.6 1029.1 1180.2 C 1018.38 1187.34 1015.46 1206.57 1014.8 1218.27 C 1013.81 1235.84 1014.1 1253.3 1014.07 1270.72 L 1014.06 1356.17 L 1014.23 1420.61 C 1014.33 1445.63 1012.11 1468.41 1024 1491.16 C 1029.05 1497.84 1030.78 1499.28 1037.31 1503.99 L 950.997 1503.55 C 976.002 1484.05 972.12 1449.02 972.088 1420.57 L 972.042 1356.22 L 972.133 1272.23 C 972.154 1248.31 973.515 1224.5 968.642 1200.99 C 965.345 1185.08 958.992 1174.48 940.572 1181.79 C 915.642 1191.68 897.193 1223.57 888.961 1247.91 C 886.667 1254.69 885.468 1267.31 882.827 1272.61 L 880.917 1273.03 C 877.72 1269.32 881.389 1243.33 881.955 1237.08 C 883.989 1215.98 885.648 1194.85 886.93 1173.7 C 901.514 1173.75 916.098 1173.68 930.68 1173.49 z" fill="rgb(60,60,60)" transform="translate(0,0)"></path>
<path d="M 668.012 804.429 C 691.666 803.623 721.438 804.081 745.222 804.6 C 722.513 825.109 727.262 864.213 727.294 892.841 L 727.359 972.883 L 727.235 1047.92 C 727.214 1064.14 726.319 1082.99 728.748 1098.8 C 732.268 1121.71 742.833 1136.59 767.889 1131.28 C 802.642 1123.91 830.568 1102.51 848.625 1072.2 C 853.928 1063.3 857.299 1052.53 863.01 1044.4 L 864.769 1044.14 L 866.358 1046.06 L 865.718 1049.29 C 856.953 1074.19 853.373 1111.73 852.512 1137.99 L 663.777 1138.05 C 689.22 1116.05 685.126 1077.53 685.045 1046.99 L 684.992 975.972 L 684.924 895.2 C 684.874 861.607 689.341 832.241 668.012 804.429 z" fill="rgb(60,60,60)" transform="translate(0,0)"></path>
<path d="M 1627.54 1508.95 C 1628.03 1525.61 1592.33 1557.83 1578.7 1565.88 C 1529.63 1594.89 1465.89 1580.82 1414.14 1567.79 C 1454.31 1595.95 1530.17 1634.51 1579.38 1631.21 C 1601.18 1629.8 1621.47 1619.58 1635.56 1602.89 C 1653.89 1581.51 1657.31 1558.78 1655.08 1531.46 C 1663.68 1534.79 1670.66 1538.04 1676.6 1545.43 C 1692.34 1565.05 1689.42 1596.17 1668.89 1610.96 C 1635.12 1635.29 1592.94 1638.26 1553.11 1633.69 C 1492.53 1624.01 1436.28 1593.89 1387.71 1557.57 C 1357.93 1535.3 1327.05 1500.29 1291.08 1535.92 C 1276.16 1550.69 1272.19 1566.38 1271.96 1586.95 C 1265.52 1577.34 1257.57 1562.27 1257.45 1550.49 C 1257.31 1542.67 1260.39 1535.14 1265.97 1529.66 C 1296.67 1498.91 1410.5 1527.32 1453.75 1533.67 C 1477.95 1537.37 1502.4 1539.2 1526.88 1539.13 C 1560.11 1538.94 1602.9 1533.81 1627.54 1508.95 z" fill="rgb(60,60,60)" transform="translate(0,0)"></path>
<path d="M 1126.92 1173.48 C 1149.08 1173.51 1171.23 1173.67 1193.38 1173.96 C 1172.26 1197.66 1176.49 1230.4 1176.62 1260.07 L 1176.88 1341.81 C 1176.85 1366.48 1176.7 1391.14 1176.41 1415.8 C 1176.09 1451.46 1172 1474.77 1195.29 1503.92 L 1183.46 1503.8 L 1112.3 1503.71 C 1140.34 1482.82 1133.92 1432.95 1133.88 1401.17 L 1133.92 1312.85 L 1133.86 1250.02 C 1133.83 1225.87 1135.84 1203.45 1123.58 1181.89 C 1122.01 1179.13 1120.05 1177.58 1118.84 1174.62 C 1120.97 1172.96 1123.99 1173.47 1126.92 1173.48 z" fill="rgb(60,60,60)" transform="translate(0,0)"></path>
<metadata><recraft-signature>{"signed_by": "recraft", "signature_b64": "1I/9iJcRM5HpX2JD2hsGQxMpijZiRgR4L5pa1aTgFDEP8xUNTXfq4qGLPdJ5XY7sVHTpaXeg5JWb2SumgdqJAg==", "signing_algo": "Ed25519", "generation_timestamp": 1776617708, "identifier": "79d2b69f-711b-48e0-9ad4-b4ab7d6a58d7"}</recraft-signature></metadata></svg>